<?xml version="1.0" encoding="UTF-8" standalone="no"?>
<!DOCTYPE svg PUBLIC "-//W3C//DTD SVG 1.1//EN" "http://www.w3.org/Graphics/SVG/1.1/DTD/svg11.dtd">
<svg version="1.1" xmlns="http://www.w3.org/2000/svg" xmlns:xlink="http://www.w3.org/1999/xlink" preserveAspectRatio="xMidYMid meet" viewBox="0 0 640 640" width="640" height="640"><defs><path d="M285.6 82.24L293.86 83.08L302.02 84.24L310.07 85.72L318.01 87.51L325.83 89.61L333.53 92L341.09 94.69L348.51 97.66L355.79 100.9L362.91 104.42L369.88 108.2L376.67 112.25L383.3 116.54L389.75 121.08L396.01 125.85L402.07 130.86L407.94 136.09L413.61 141.55L419.06 147.21L424.29 153.08L429.3 159.15L434.07 165.41L438.61 171.86L442.91 178.48L446.95 185.28L450.73 192.24L454.25 199.37L457.49 206.64L460.46 214.07L463.15 221.63L465.54 229.33L467.63 237.15L469.43 245.09L470.91 253.15L472.07 261.31L472.91 269.57L473.42 277.93L473.59 286.37L473.56 289.49L473.49 292.61L473.38 295.71L473.21 298.8L473.01 301.88L472.76 304.94L472.46 307.99L472.12 311.03L471.73 314.06L471.3 317.07L470.83 320.07L470.31 323.05L469.75 326.02L469.15 328.97L468.5 331.9L467.82 334.82L467.09 337.73L466.32 340.62L465.51 343.49L464.66 346.34L463.77 349.17L462.84 351.99L461.87 354.79L460.86 357.57L459.81 360.34L458.73 363.08L457.6 365.8L456.44 368.51L455.24 371.19L454 373.86L452.73 376.5L451.42 379.12L450.07 381.72L448.69 384.3L447.27 386.86L445.81 389.39L444.32 391.9L442.8 394.39L441.24 396.86L439.65 399.3L575.99 535.64L518.07 593.54L381.73 457.21L379.29 458.8L376.83 460.35L374.34 461.88L371.83 463.37L369.3 464.82L366.74 466.24L364.16 467.62L361.56 468.97L358.94 470.28L356.3 471.56L353.63 472.8L350.95 474L348.24 475.16L345.52 476.29L342.78 477.37L340.01 478.42L337.23 479.43L334.43 480.41L331.61 481.34L328.78 482.23L325.92 483.08L323.05 483.89L320.16 484.66L317.26 485.39L314.34 486.08L311.4 486.72L308.45 487.33L305.48 487.89L302.5 488.41L299.5 488.88L296.49 489.31L293.46 489.7L290.42 490.04L287.37 490.34L284.31 490.59L281.23 490.8L278.14 490.96L275.04 491.08L271.92 491.15L268.8 491.17L260.36 491L252 490.49L243.74 489.66L235.58 488.49L227.53 487.01L219.59 485.22L211.77 483.12L204.07 480.73L196.51 478.05L189.09 475.08L181.81 471.83L174.69 468.31L167.72 464.53L160.93 460.48L154.3 456.19L147.85 451.65L141.59 446.87L135.53 441.87L129.66 436.63L123.99 431.18L118.54 425.51L113.31 419.64L108.3 413.58L103.52 407.31L98.99 400.87L94.69 394.24L90.65 387.44L86.87 380.48L83.35 373.35L80.11 366.08L77.14 358.66L74.45 351.09L72.06 343.4L69.96 335.58L68.17 327.64L66.69 319.58L65.53 311.42L64.69 303.16L64.18 294.81L64.01 286.37L64.18 277.93L64.69 269.57L65.53 261.31L66.69 253.15L68.17 245.09L69.96 237.15L72.06 229.33L74.45 221.63L77.14 214.07L80.11 206.64L83.35 199.37L86.87 192.24L90.65 185.28L94.69 178.48L98.99 171.86L103.52 165.41L108.3 159.15L113.31 153.08L118.54 147.21L123.99 141.55L129.66 136.09L135.53 130.86L141.59 125.85L147.85 121.08L154.3 116.54L160.93 112.25L167.72 108.2L174.69 104.42L181.81 100.9L189.09 97.66L196.51 94.69L204.07 92L211.76 89.61L219.59 87.51L227.53 85.72L235.58 84.24L243.74 83.08L252 82.24L260.36 81.73L268.8 81.56L277.24 81.73L285.6 82.24ZM256.76 140.14L250.85 140.74L245 141.57L239.23 142.63L233.54 143.92L227.93 145.42L222.42 147.13L217 149.06L211.68 151.18L206.46 153.51L201.36 156.03L196.37 158.74L191.5 161.64L186.75 164.71L182.13 167.96L177.64 171.39L173.3 174.97L169.09 178.72L165.03 182.63L161.12 186.69L157.37 190.89L153.78 195.24L150.36 199.73L147.11 204.35L144.03 209.09L141.14 213.96L138.42 218.95L135.9 224.06L133.58 229.27L131.45 234.59L129.52 240.01L127.81 245.52L126.31 251.13L125.02 256.82L123.96 262.59L123.13 268.44L122.53 274.36L122.16 280.35L122.04 286.4L122.16 292.45L122.53 298.44L123.13 304.36L123.96 310.21L125.02 315.98L126.31 321.67L127.81 327.28L129.52 332.79L131.45 338.21L133.58 343.53L135.9 348.75L138.42 353.85L141.14 358.84L144.03 363.71L147.11 368.46L150.36 373.08L153.78 377.57L157.37 381.92L161.12 386.13L165.03 390.18L169.09 394.09L173.3 397.84L177.64 401.43L182.13 404.86L186.75 408.11L191.5 411.18L196.37 414.08L201.36 416.79L206.46 419.31L211.68 421.64L217 423.77L222.42 425.69L227.93 427.41L233.54 428.91L239.23 430.19L245 431.25L250.85 432.09L256.76 432.69L262.75 433.05L268.8 433.18L274.85 433.05L280.84 432.69L286.76 432.09L292.61 431.25L298.38 430.19L304.07 428.91L309.68 427.41L315.19 425.69L320.61 423.77L325.93 421.64L331.14 419.31L336.25 416.79L341.24 414.08L346.11 411.18L350.86 408.11L355.48 404.86L359.97 401.43L364.32 397.84L368.52 394.09L372.58 390.18L376.49 386.13L380.24 381.92L383.83 377.57L387.25 373.08L390.51 368.46L393.58 363.71L396.48 358.84L399.19 353.85L401.71 348.75L404.04 343.53L406.17 338.21L408.09 332.79L409.81 327.28L411.31 321.67L412.59 315.98L413.65 310.21L414.49 304.36L415.09 298.44L415.45 292.45L415.57 286.4L415.45 280.35L415.09 274.36L414.49 268.44L413.65 262.59L412.59 256.82L411.31 251.13L409.81 245.52L408.09 240.01L406.17 234.59L404.04 229.27L401.71 224.06L399.19 218.95L396.48 213.96L393.58 209.09L390.51 204.35L387.25 199.73L383.83 195.24L380.24 190.89L376.49 186.69L372.58 182.63L368.52 178.72L364.32 174.97L359.97 171.39L355.48 167.96L350.86 164.71L346.11 161.64L341.24 158.74L336.25 156.03L331.14 153.51L325.93 151.18L320.61 149.06L315.19 147.13L309.68 145.42L304.07 143.92L298.38 142.63L292.61 141.57L286.76 140.74L280.84 140.14L274.85 139.78L268.8 139.65L262.75 139.78L256.76 140.14Z" id="a7x7rpysk"></path></defs><g><g><g><use xlink:href="#a7x7rpysk" opacity="1" fill="#ffffff" fill-opacity="1"></use><g><use xlink:href="#a7x7rpysk" opacity="1" fill-opacity="0" stroke="#000000" stroke-width="1" stroke-opacity="0"></use></g></g></g></g></svg>